<svg xmlns="http://www.w3.org/2000/svg" viewBox="0 0 1920 384" width="1920" height="384">
  <defs>
    <linearGradient id="bannerBg" x1="0%" y1="0%" x2="100%" y2="100%">
      <stop offset="0%" style="stop-color:#0f0f1a"/>
      <stop offset="50%" style="stop-color:#1A1A2E"/>
      <stop offset="100%" style="stop-color:#0f0f1a"/>
    </linearGradient>
    <filter id="glow" x="-50%" y="-50%" width="200%" height="200%">
      <feGaussianBlur stdDeviation="4" result="coloredBlur"/>
      <feMerge>
        <feMergeNode in="coloredBlur"/>
        <feMergeNode in="SourceGraphic"/>
      </feMerge>
    </filter>
    <filter id="textGlow" x="-50%" y="-50%" width="200%" height="200%">
      <feGaussianBlur stdDeviation="2" result="coloredBlur"/>
      <feMerge>
        <feMergeNode in="coloredBlur"/>
        <feMergeNode in="SourceGraphic"/>
      </feMerge>
    </filter>
  </defs>

  <!-- Background -->
  <rect width="1920" height="384" fill="url(#bannerBg)"/>

  <!-- Binary code background pattern (left side) -->
  <g fill="rgba(255,255,255,0.03)" font-family="monospace" font-size="14">
    <text x="30" y="40">01001010 10110101 01101001</text>
    <text x="50" y="70">10110010 01001101 10010110</text>
    <text x="20" y="100">01101101 10110010 01001010</text>
    <text x="60" y="130">10010110 01101001 10110101</text>
    <text x="40" y="160">01001010 10010110 01101101</text>
    <text x="30" y="190">10110101 01001010 10110010</text>
    <text x="70" y="220">01101001 10110101 01001101</text>
    <text x="25" y="250">10010110 01101101 10010110</text>
    <text x="55" y="280">01001101 10010110 01101001</text>
    <text x="35" y="310">10110010 01001010 10110101</text>
    <text x="45" y="340">01101101 10110101 01001010</text>
    <text x="65" y="370">10010110 01101001 10110010</text>
  </g>

  <!-- Binary code background pattern (right side) -->
  <g fill="rgba(255,255,255,0.03)" font-family="monospace" font-size="14">
    <text x="1650" y="50">01001010 10110101</text>
    <text x="1680" y="80">10110010 01001101</text>
    <text x="1640" y="110">01101101 10110010</text>
    <text x="1690" y="140">10010110 01101001</text>
    <text x="1660" y="170">01001010 10010110</text>
    <text x="1630" y="200">10110101 01001010</text>
    <text x="1670" y="230">01101001 10110101</text>
    <text x="1650" y="260">10010110 01101101</text>
    <text x="1685" y="290">01001101 10010110</text>
    <text x="1645" y="320">10110010 01001010</text>
    <text x="1675" y="350">01101101 10110101</text>
  </g>

  <!-- Left side: Comment cards visualization -->
  <g transform="translate(280, 80)">
    <!-- Comment 1 -->
    <rect x="0" y="0" width="280" height="40" rx="8" fill="rgba(255,255,255,0.08)"/>
    <rect x="15" y="12" width="180" height="6" rx="3" fill="rgba(255,255,255,0.15)"/>
    <rect x="15" y="24" width="120" height="6" rx="3" fill="rgba(255,255,255,0.1)"/>

    <!-- Comment 2 -->
    <rect x="0" y="55" width="280" height="40" rx="8" fill="rgba(255,255,255,0.08)"/>
    <rect x="15" y="67" width="200" height="6" rx="3" fill="rgba(255,255,255,0.15)"/>
    <rect x="15" y="79" width="140" height="6" rx="3" fill="rgba(255,255,255,0.1)"/>

    <!-- Comment 3 - AI (highlighted) -->
    <rect x="0" y="110" width="280" height="40" rx="8" fill="rgba(255,69,0,0.2)" stroke="#FF4500" stroke-width="2" filter="url(#glow)"/>
    <rect x="15" y="122" width="160" height="6" rx="3" fill="rgba(255,69,0,0.5)"/>
    <rect x="15" y="134" width="100" height="6" rx="3" fill="rgba(255,69,0,0.3)"/>
    <!-- AI indicator on this comment -->
    <g transform="translate(240, 115)">
      <rect x="0" y="0" width="32" height="18" rx="4" fill="#FF4500"/>
      <text x="16" y="13" fill="white" font-family="Arial, sans-serif" font-size="10" font-weight="bold" text-anchor="middle">AI</text>
    </g>

    <!-- Comment 4 -->
    <rect x="0" y="165" width="280" height="40" rx="8" fill="rgba(255,255,255,0.08)"/>
    <rect x="15" y="177" width="190" height="6" rx="3" fill="rgba(255,255,255,0.15)"/>
    <rect x="15" y="189" width="130" height="6" rx="3" fill="rgba(255,255,255,0.1)"/>
  </g>

  <!-- Magnifying glass between cards and text -->
  <g transform="translate(650, 192)">
    <circle cx="0" cy="0" r="50" fill="rgba(255,69,0,0.1)" stroke="#FF4500" stroke-width="5"/>
    <line x1="35" y1="35" x2="70" y2="70" stroke="#FF4500" stroke-width="8" stroke-linecap="round"/>
    <text x="0" y="12" fill="white" font-family="Arial, sans-serif" font-size="50" font-weight="bold" text-anchor="middle">?</text>
  </g>

  <!-- Center/Right: Main text content (in safe zone) -->
  <g transform="translate(960, 120)">
    <!-- Game title -->
    <text x="0" y="0" fill="#FF4500" font-family="Arial, sans-serif" font-size="56" font-weight="bold" text-anchor="middle" filter="url(#textGlow)">COMMENT CONSPIRACY</text>

    <!-- Tagline -->
    <text x="0" y="60" fill="white" font-family="Arial, sans-serif" font-size="28" text-anchor="middle" opacity="0.9">One of these comments isn't human.</text>
    <text x="0" y="100" fill="#FF4500" font-family="Arial, sans-serif" font-size="32" font-weight="bold" text-anchor="middle">Can you spot the imposter?</text>

    <!-- Daily game badge -->
    <g transform="translate(0, 150)">
      <rect x="-80" y="0" width="160" height="36" rx="18" fill="rgba(255,69,0,0.2)" stroke="#FF4500" stroke-width="2"/>
      <text x="0" y="24" fill="white" font-family="Arial, sans-serif" font-size="16" font-weight="bold" text-anchor="middle">NEW PUZZLE DAILY</text>
    </g>
  </g>

  <!-- Right side decorative elements -->
  <g transform="translate(1500, 100)">
    <!-- Streak flame icon suggestion -->
    <text x="0" y="40" fill="rgba(255,69,0,0.3)" font-size="80">🔥</text>
    <text x="80" y="120" fill="rgba(255,255,255,0.1)" font-size="60">🎯</text>
    <text x="20" y="200" fill="rgba(255,69,0,0.2)" font-size="70">🏆</text>
  </g>

  <!-- Subtle scan line effect -->
  <g opacity="0.02">
    <line x1="0" y1="96" x2="1920" y2="96" stroke="white" stroke-width="1"/>
    <line x1="0" y1="192" x2="1920" y2="192" stroke="white" stroke-width="1"/>
    <line x1="0" y1="288" x2="1920" y2="288" stroke="white" stroke-width="1"/>
  </g>
</svg>
